<?xml version="1.0" encoding="utf-8"?>
<!-- Generator: Adobe Illustrator 19.0.0, SVG Export Plug-In . SVG Version: 6.00 Build 0)  -->
<svg version="1.1" id="_x37C_" xmlns="http://www.w3.org/2000/svg" xmlns:xlink="http://www.w3.org/1999/xlink" x="0px" y="0px"
	 viewBox="0 0 220 220" style="enable-background:new 0 0 220 220;" xml:space="preserve">
<style type="text/css">
	.st0{fill-rule:evenodd;clip-rule:evenodd;fill:none;stroke:url(#SVGID_1_);stroke-width:0.1;stroke-miterlimit:10;}
	.st1{fill-rule:evenodd;clip-rule:evenodd;fill:none;stroke:url(#SVGID_2_);stroke-width:0.1;stroke-miterlimit:10;}
	.st2{fill-rule:evenodd;clip-rule:evenodd;fill:none;stroke:url(#SVGID_3_);stroke-width:0.1;stroke-miterlimit:10;}
	.st3{fill-rule:evenodd;clip-rule:evenodd;fill:none;stroke:url(#SVGID_4_);stroke-width:0.1;stroke-miterlimit:10;}
	.st4{fill-rule:evenodd;clip-rule:evenodd;fill:none;stroke:url(#SVGID_5_);stroke-width:0.1;stroke-miterlimit:10;}
</style>
<radialGradient id="SVGID_1_" cx="112.2519" cy="97.3224" r="79.8326" gradientUnits="userSpaceOnUse">
	<stop  offset="0" style="stop-color:#FFF9B1"/>
	<stop  offset="1" style="stop-color:#AA5C3F"/>
</radialGradient>
<path class="st0" d="M112.2,1c0,0,0.2,0.1,0.3,0.3c0.1,0.3,0.9,2.9,1,3.2c0.1,0.3,1,2.9,1.2,3.5s1.4,3.6,1.7,4.5
	c0.4,0.9,2.3,5.4,2.7,6c0.5,0.9,2.9,5.9,3.3,6.3c0.5,0.9,3.1,5.5,3.4,5.7c0.5,0.7,3.6,5.7,4.1,6.3s6.8,10.4,14.2,19.6
	s20.8,28.9,22.6,38s4.2,14.8-1.6,33.1c-4.6,11.4-11,18.2-15.8,22.6c-4.8,4.3-12.2,8.1-12.8,8.4s-2,0.8-1.6,1.8
	c0.3,1-0.1,2.1-0.3,2.2s-1,0.7-0.5,1.2c0.5,0.5,2.3,2.4,5,1.5s2.9-1.4,5-1.3c2.1,0.1,3.7,2.4,3.8,3c0.2,0.8,1,2.2,0.1,7.4
	c-0.5,1.4-0.2,1.4-1.9,3c-0.1,0.2-0.4,0.6,0.1,0.5s27.9,2.9,24.5,8.1s-37.2,8.2-67.8,7.4c-7.1-0.2-50.3-1.8-49.5-8.5
	c0.9-4.6,23.9-6.9,24.2-7c0.4-0.1,1.2,0,0.4-0.8c-0.4-0.3-0.9-0.4-1.5-2.2s-1.2-7.2,0.6-9.3c1.8-2.2,4.3-2,6.2-1.1
	c1.9,0.9,4.1,1.9,6.7-0.7c0.6-0.8-0.2-0.9-0.4-1.4c-0.2-0.4-0.5-1.2-0.2-2.6c0-0.1,0.1-0.6-0.8-0.9c-0.9-0.3-18-6.6-28.5-29.4
	c-9.6-24.2-4.1-39.6,16.7-68.4c15-20.4,18.4-25,21.9-30.9c5.9-8.9,11.6-22.6,12.7-27.3C111.9,1.3,112.2,1,112.2,1z"/>
<radialGradient id="SVGID_2_" cx="112.229" cy="73.7289" r="49.0039" gradientUnits="userSpaceOnUse">
	<stop  offset="0" style="stop-color:#FFF9B1"/>
	<stop  offset="1" style="stop-color:#AA5C3F"/>
</radialGradient>
<path class="st1" d="M112.3,13.4c0.1,0.8,0.2,1.7,0.3,2.5c0.7,5.9,2.7,17.3,15.9,38.2c9.9,15.2,17.8,30.3,17.7,40.4
	c-0.1,10.1-2.6,16.7-3.9,19.6s-7.4,15.5-19,19.7c-0.4,0.2-0.9,0.2-1.2,0.1c-0.7-0.2-1.5-0.3-1.8-0.4c-0.3-0.1-2.2-0.5-2.7-2
	c-0.1-0.1,0-0.4,0.2-0.5c0.2-0.1,0.9-0.2,1.2-0.3c0.3-0.1,5.5-1.5,9.2-4.8c3.7-3.2,7.8-8,8.9-15.7s-1.5-16.5-8.4-22.7
	c-6.9-6.2-21.1-9.9-32.7-0.1s-10.7,26.3-3.4,34.7c6.9,7.9,11.9,8,13.6,8.8c0.3,0.1,0.5,0.1,0.5,0.2c0.1,0.1,0.2,0.1,0.2,0.3
	c0,0.2-0.6,1.4-1.4,1.7c-0.4,0.2-1.9,0.7-2.5,0.7c-0.6,0.1-1.1,0.3-2.6-0.3c-0.7-0.3-4.9-2.2-7.9-5c-1.4-1.5-14-11.1-14.3-33.9
	C79,72.4,100.9,53.3,110,24.5c1.9-7.2,1.8-8.8,2.2-11C112.2,13.4,112.3,13.4,112.3,13.4z"/>
<radialGradient id="SVGID_3_" cx="112.3157" cy="110.2973" r="16.283" gradientUnits="userSpaceOnUse">
	<stop  offset="0" style="stop-color:#FFF9B1"/>
	<stop  offset="1" style="stop-color:#AA5C3F"/>
</radialGradient>
<path class="st2" d="M104.8,126c-0.4,0.3-9.8-4.7-9.2-15.7c0.6-11,10.6-16.1,16.6-15.7c6,0.4,13.2,3.1,16.2,12.7
	c3,9.7-5.4,17.3-7.7,18.3c-0.4,0.2-0.8,0.4-0.9,0.4c-0.1,0-0.2,0-0.3-0.2c-0.1-0.2,0.1-2.7,1.5-4.7c1.4-2,1.5-2.7,1.7-3.1
	s-0.3-1.2-0.8-1.1c-0.3,0-0.4,0.1-0.5,0.1c-0.1,0-0.2-0.1-0.2-0.1c0-0.1,0.1-0.6,0.1-1s0.5-3.1-0.6-4.8c-0.5-0.7-0.8-2-5-5
	c-0.7-0.4-0.6-0.6-0.6-0.7c0-0.1,0.4-1.2,0.4-1.5c0.1-0.3,0.2-0.8,0.1-1.1c0-0.3-0.2-1.2-0.6-1.7c-0.4-0.4-1.3-1.5-2.9-1.5
	c-1.5,0-2.5,0.9-3,1.6c-0.5,0.7-0.8,1.6-0.4,2.8c0.4,1.2,0.6,1.6,0.2,1.9c-0.1,0.1-2.9,2.1-3.5,2.8c-0.7,0.7-3,2.9-2.5,6.2
	c0.1,0.8,0.3,1.9,0.2,2.1c-0.1,0.2-0.5,0-0.7,0c-0.2-0.1-0.9,0.2-0.9,1c0.1,0.9,1.4,2.4,1.8,3.2C103.9,122,105.3,124.4,104.8,126z"
	/>
<radialGradient id="SVGID_4_" cx="112.2423" cy="189.112" r="61.0472" gradientUnits="userSpaceOnUse">
	<stop  offset="0" style="stop-color:#FFF9B1"/>
	<stop  offset="1" style="stop-color:#AA5C3F"/>
</radialGradient>
<path class="st3" d="M147.8,175.6c0.1,0,0.2,0.1,0.5,0.2c0.3,0,13.5,1.2,16.3,1.7c2.8,0.4,28.5,3.4,32.5,9.8
	c4,6.5-24.3,15.5-87.5,15.5c-64.2-0.9-83.2-9.1-82.5-14.6c1.4-5.5,19.7-8.6,20.4-8.8c1.2-0.3,14.1-2.2,16-2.5s12.8-1.3,13.1-1.3
	c0-0.1,0-0.2,0-0.3c0-0.1,0.5,1.1,0.9,1.4c-0.1,0,0,0-0.2,0s-16.9,1.5-23.9,3c-7,1.5-17.2,3.3-17,7.4c0.9,5.5,27.8,8.4,38.5,9.1
	c13.6,1.3,54.8,2.2,69,0.4c13.8-1.4,32.6-1.8,42.7-7.7c9-6.1-24.7-11.2-28.3-11.1c-4-0.4-10-1.1-10.6-1.1c-0.5,0-0.6-0.1-1.1,0.2
	C147.5,176.3,147.8,175.6,147.8,175.6z"/>
<radialGradient id="SVGID_5_" cx="110.0367" cy="195.9371" r="77.7396" gradientUnits="userSpaceOnUse">
	<stop  offset="0" style="stop-color:#FFF9B1"/>
	<stop  offset="1" style="stop-color:#AA5C3F"/>
</radialGradient>
<path class="st4" d="M186.9,179.6c0.1,0.1,0.6,0.2,1.1,0.3c0.5,0.1,6.7,1.4,7.3,1.5c0.6,0.2,10.3,2.7,13.6,4.6
	c3.3,1.9,8.4,4.4,8.5,9.5s-10.9,10.7-23.7,14.1c-14.4,4-52.4,10.1-83.8,9.4c-31.1,0-69.8-4.4-82.9-8.9c-14-3.9-31.4-10.8-21.6-20.6
	c9.9-9.7,50.5-14.4,53.5-14.4c3.4-0.3,15.8-1.4,16.8-1.5c0.4-0.3,0.3-0.3,0.4-0.6c0.1,0.2,0.3,1.5,0.3,1.6c0.1,0.1-0.2-0.3-0.3-0.3
	c0,0-2.3,0-3.1,0.2c-0.8,0.2-14.7,1.3-17.8,2c-3.1,0.8-22.8,2.8-35.3,9.4c-12.7,7.2-0.2,13.7,10.1,16.2c11.1,3.6,48.8,9,79.9,8.2
	c30.2,0.4,74.5-3.2,90.7-10.3c16.7-6.7,8-13.5-5.5-17.9c-6.4-1.9-7.5-2.1-7.9-2.2C187,179.9,186.9,179.6,186.9,179.6z"/>
</svg>
